<?xml version="1.0" standalone="no"?>
<!DOCTYPE svg PUBLIC "-//W3C//DTD SVG 1.1//EN" "http://www.w3.org/Graphics/SVG/1.1/DTD/svg11.dtd" >
<!--
2013-9-30: Created.
-->
<svg>
<metadata>
Created by iconfont
</metadata>
<defs>

<font id="iconfont" horiz-adv-x="1024" >
  <font-face
    font-family="iconfont"
    font-weight="500"
    font-stretch="normal"
    units-per-em="1024"
    ascent="896"
    descent="-128"
  />
    <missing-glyph />
    
    <glyph glyph-name="luxiang" unicode="&#59152;" d="M545.260349 601.841559c-54.303968-0.077771-98.096105-45.38056-98.251654-101.311407 0.154526-55.969733 43.947685-101.195773 98.251654-101.31243 54.227217 0.116657 98.155459 45.342698 98.194346 101.31243C643.415808 556.460999 599.487566 601.763788 545.260349 601.841559zM745.720944 500.452381c0 114.15083-89.737397 206.658733-200.38282 206.658733-104.22596 0-189.870988-82.113159-199.451573-187.03172-25.290002 39.795355-68.849839 66.171072-118.421845 66.171072-78.333206 0-141.772603-65.433268-141.772603-146.227386 0-50.248428 24.611522-94.52484 61.984196-120.860648l-3.412866 0c-43.715385 0-79.109927-36.518728-79.109927-81.569784l0-263.093047c0-45.070498 35.394542-81.608669 79.109927-81.608669l500.413141 0c43.637611 0 79.090483 36.538171 79.090483 81.608669L723.767056 237.591625c0 45.051055-35.453896 81.569784-79.090483 81.569784l-3.122235 0C703.576398 354.282301 745.720944 422.296347 745.720944 500.452381zM306.341309 319.161409c29.731333 20.712741 51.627913 52.401464 59.520997 89.773629 18.385472-38.263465 48.117829-69.448722 84.365843-89.773629L306.341309 319.161409zM545.299236 356.241932c-77.189103 0-139.794471 64.579831-139.794471 144.210449 0 79.649038 62.605368 144.172587 139.794471 144.172587 77.229013 0 139.755584-64.522526 139.834381-144.172587C685.05482 420.821763 622.52825 356.241932 545.299236 356.241932zM759.412318 153.268124l0-111.822808 199.433153-107.751073L958.845471 270.618832 759.412318 153.268124z"  horiz-adv-x="1024" />

    
    <glyph glyph-name="weixin" unicode="&#59322;" d="M298.98196411 529.4039669c0-18.54329109 14.92424011-33.4675312 33.46753121-33.46753121s33.46830368 14.92424011 33.46830368 33.46753121c0 18.54329109-14.92501259 33.4675312-33.46830368 33.46753121-18.54251861 0-33.4675312-14.92424011-33.46753121-33.46753121z m259.60144043-172.31394767c0-14.47234153 11.75940513-26.23174668 26.23174668-26.23174668s26.23174668 11.75940513 26.23174667 26.23174667-11.75940513 26.23174668-26.23174667 26.23174668-26.23174668-11.75940513-26.23174668-26.23174668zM469.03487396 529.4039669c0-18.54329109 14.92424011-33.4675312 33.46753121-33.46753121 18.54329109 0 33.4675312 14.92424011 33.4675312 33.46753121 0 18.54329109-14.92424011 33.4675312-33.4675312 33.46753121-18.54329109 0-33.4675312-14.92424011-33.46753121-33.46753121zM779.28989602 779.5078125H244.71010398C174.1559906 779.5078125 116.71852302 722.06957244 116.71852302 651.06356048v-533.6752224c0-71.00601196 57.43746757-128.44425201 127.99158096-128.444252h534.57979204c70.55411338 0 127.99158097 57.43824005 127.99158095 128.444252V651.06356048C907.28147698 721.61844636 849.8440094 779.5078125 779.28989602 779.5078125zM413.40577317 249.45009612c-29.85002517 0-53.81996154 6.33198738-84.12188531 12.21130373L245.61467361 219.60161589999996l23.96993637 71.90980912C209.43343353 333.57275390999996 173.70409202 387.8453865 173.70409202 453.42398071c0 113.97113801 108.09182167 203.97233962 239.70168115 203.97233963 118.04208756 0 221.15839004-71.90980911 241.96271895-168.24377059a197.24484443 197.24484443 0 0 1-23.06536674 1.35724068c-113.97113801 0-203.97233962-85.02645493-203.97233963-189.4999981 0-17.63872147 2.71370889-34.37210083 7.23578453-50.20168305-7.23578452-0.90456963-14.47234153-1.35724068-22.16079711-1.35724068z m353.67281913-83.66921424l18.09139252-59.69927787-65.57936668 36.18124006c-23.96993637-5.87854385-47.93987274-12.21130372-71.90980913-12.21130369-113.97191049 0-203.97311211 77.79067039-203.97311209 174.1238594 0 95.87974549 90.00120163 174.12231445 203.97233963 174.12231446 107.6399231 0 203.52044106-78.24256897 203.52044105-174.12308694-0.45189858-54.72453117-36.18124009-102.66440391-84.1218853-138.39374541zM689.28869439 357.09001923000005c0-14.47234153 11.75940513-26.23174668 26.23174667-26.23174668s26.23174668 11.75940513 26.23174667 26.23174668-11.75940513 26.23174668-26.23174667 26.23174667c-14.92424011 0-26.23174668-11.75940513-26.23174668-26.23174667z"  horiz-adv-x="1024" />

    
    <glyph glyph-name="qq" unicode="&#59014;" d="M8.757333 382.666667a510.357333 505.269333 90 1 1 1010.538667 0 510.357333 505.269333 90 1 1-1010.538667 0ZM770.666667 297.792l-1.397334 10.090667-1.792 9.856-1.418666 5.066666-1.376 5.386667-1.802667 5.130667-1.856 5.717333-2.133333 5.386667-2.325334 5.536-4.149333 9.024-3.68 7.957333-3.669333 7.114667-3.210667 6.634666-3.68 6.048-2.698667 5.536-5.706666 8.288-7.189334 11.029334-1.653333 2.72-0.576 1.162666v0.917334l1.205333 3.722666 1.674667 3.317334 1.44 6.549333 0.810667 3.381333v3.488l0.416 2.805334v2.816l-0.416 3.242666-0.458667 2.656-1.066667 5.365334-1.376 5.226666-1.237333 4.8-1.973333 4.64-2.197334 3.882667-1.738666 3.658667-1.930667 3.477333-3.050667 5.130667-1.12 1.813333-0.341333 1.578667-1.397333 9.941333-0.906667 6.549333-1.034667 8.106667-1.589333 8.384-2.506667 9.6-1.408 5.376-1.130666 4.565333-1.568 5.290667-1.76 5.632-1.770667 5.226667-2.250667 5.621333-4.608 10.858667-2.730666 5.130666-3.274667 5.888-3.093333 5.045334-3.082667 5.728-4.362667 5.290666-3.68 5.141334-4.48 5.290666-4.565333 4.8-4.608 4.650667-5.450667 4.810667-2.88 1.728-2.709333 2.410666-5.898667 4.213334-6.805333 4.565333-6.965333 4.138667-7.168 3.722666-7.850667 3.402667-7.349333 3.221333-7.669334 2.826667-8.373333 2.325333-7.669333 2.058667-8.170667 1.802667-7.712 1.909333-8.330667 0.917333-8.16 1.002667-8.149333 1.077333h-24.352l-8.256-0.48-7.744-1.088-7.722667-1.077333-7.84-1.322667-7.765333-1.504-7.349333-1.824-7.36-2.389333-6.837334-2.410667-6.837333-2.314666-6.858667-3.402667-6.474666-2.730667-5.728-3.317333-5.984-3.722667-5.514667-3.893333-5.44-4.373333-4.48-4.074667-7.04-6.698667-5.824-6.218666-5.589333-6.037334-5.12-6.154666-4.810667-6.272-4.213333-6.133334-4.085334-6.122666-1.92-2.741334-1.76-3.306666-3.829333-5.813334-3.029333-5.792-2.698667-5.472-2.346667-5.792-2.314666-5.290666-1.909334-4.981334-1.76-5.290666-1.792-4.896-2.378666-8.864-1.738667-8.522667-0.949333-7.125333-0.981334-6.144v-11.914667l-1.674666-1.834667-1.514667-2.485333-1.194667-2.229333-1.034666-2.4-1.301334-5.216-1.418666-4.8-0.469334-4.309334-0.32-3.157333v-3.381333l-3.274666-4.810667-2.336-4.8-1.76-4.64-1.301334-4.149333-1.002666-3.968-0.96-3.733334v-9.525333l0.565333-2.314667 0.810667-4.224 1.002666-3.232-1.813333-1.418666-5.141333-3.882667-6.794667-6.282667-4.16-3.722666-4.074667-3.658667-2.784-2.912-2.304-2.56-4.96-5.376-4.693333-5.386667-3.68-4.64-4.416-6.709333-4.213333-6.037333-4.16-6.72-3.509334-6.208-2.912-6.624-3.093333-6.133334-2.250667-6.037333-2.378666-6.304-1.770667-6.122667-1.738667-6.293333-1.536-5.482667-0.864-5.866666-0.96-5.461334-0.8-5.312-0.490666-10.346666v-13.909334l0.490666-4.234666 1.301334-7.2 0.458666-3.178667 0.864-3.210667 1.045334-3.050666 0.981333-2.144 1.568-3.989334 1.205333-0.810666 0.736-1.685334 0.928-0.394666h0.96l4.085334 0.394666 4.170666 1.077334 3.509334 1.418666 3.669333 2.410667 3.36 2.218667 3.04 2.922666 3.285333 3.04 2.762667 3.146667 2.645333 3.562667 2.4 3.221333 2.261334 2.677333 1.397333 3.061334 2.741333 5.056 0.864 2.058666 0.490667 1.237334 0.234667 1.418666 0.64 1.152 0.490666 0.256 0.928 0.501334H298.666667l0.234666-0.501334h0.469334l0.469333-0.256 1.536-6.858666 1.674667-5.546667 2.229333-5.824 2.250667-5.216 1.888-5.194667 2.922666-4.554666 2.122667-4.8 2.410667-4.405334 2.762666-3.818666 2.112-3.658667 5.589334-6.784 4.874666-6.037333 4.704-4.704 4.629334-4.234667 4.021333-3.317333 5.984-5.376 2.4-1.184 0.8-1.141334v-0.565333l-0.554667-0.522667h-0.245333l-1.205333-0.394666-4.490667-0.341334-4.16-0.576-3.498667-0.490666-3.68-0.821334-3.210666-1.013333-3.189334-0.992-2.794666-1.504-2.197334-1.386667-2.826666-0.917333-1.76-1.493333-1.888-1.152-2.037334-1.653334-2.549333-3.221333-0.949333-1.514667-1.173334-1.312-1.621333-3.392-0.885333-2.826666-1.056-2.826667-0.213334-2.464v-4.650667l-0.469333-2.304v-2.357333l-0.565333-2.304v-2.048l0.565333-2.250667 0.469333-2.016 1.269334-3.850666 0.885333-1.834667 1.12-1.834667 1.258667-1.813333 1.365333-1.578667 1.845333-1.802666 1.365334-1.493334 4.074666-3.061333 4.085334-2.570667 4.682666-2.336 5.045334-2.069333 5.344-2.229333 5.930666-1.386667 5.909334-2.005333 6.389333-1.333334 6.378667-0.970666 6.570666-1.013334 6.784-0.992 13.376-1.418666 13.802667-0.245334h24.426667l5.984 0.245334 5.12 0.597333 4.949333 0.394667 4.629333 0.426666 7.456 1.482667 5.365334 1.493333 5.098666 1.333334 9.408 3.989333 4.266667 1.632 4.064 2.069333 6.72 3.818667 6.048 3.072 4.490667 2.890667 3.274666 3.061333 5.130667-0.554667 3.968-0.448 7.84-0.576h6.794667l2.378666-0.490666 2.410667-0.992 3.861333-1.418667 4.288-1.472 8.16-2.570667 8.330667-3.082666 8.117333-2.368 8.181334-1.685334 8.352-2.133333 8.650666-1.258667 8.202667-0.917333 8.234667-1.162667 7.701333-0.736 8.234667-0.469333h22.837333l7.349333 0.885333 7.210667 0.32 6.933333 1.162667 6.4 1.44 6.4 1.386667 6.122667 1.482666 2.538667 0.746667 2.858666 0.938667 5.312 2.122666 4.725334 2.229334 4.458666 2.325333 4.170667 2.421333 3.669333 2.805334 1.450667 1.514666 1.728 2.048 2.229333 2.752 2.442667 3.381334 0.874667 1.706666 0.394666 1.44 1.034667 1.834667 0.384 1.984v1.898667l0.501333 1.909333-0.501333 2.794667-0.384 2.4-1.034667 2.826666-0.810666 2.325334-1.525334 2.816-1.834666 2.581333-1.770667 2.229333-2.368 1.877334-4.896 4.309333-5.493333 4.149333-5.536 3.328-5.834667 3.381334-13.333333 6.634666-3.178667 1.984-0.885333 0.917334-0.565334 0.586666 6.421334 6.549334 2.762666 3.210666 2.304 2.976 4.490667 6.549334 4.234667 6.709333 3.584 5.962667 3.381333 5.728 4.533333 11.434666 3.530667 9.504 2.325333 6.730667 1.344 2.229333 0.810667 1.802667 1.386667 1.098667h0.597333l0.384-0.256 3.434667-6.88 3.072-6.634667 2.154666-3.744 2.229334-3.210667 2.208-3.968 2.837333-3.904 2.378667-2.730666 1.450666-1.472 1.429334-1.333334 1.290666-0.992 1.248-0.917333 2.752-1.418667 1.408-0.490666h2.229334l1.450666 0.490666 1.781334 0.917334 1.994666 0.917333 1.632 1.493333 1.557334 1.728 1.738666 2.154667 1.376 1.653333 1.536 2.677334 1.141334 2.144 1.376 3.050666 0.746666 2.581334 1.984 6.282666 1.290667 6.954667 0.938667 7.712 0.629333 4.469333v12.597334z"  horiz-adv-x="1024" />

    
    <glyph glyph-name="xuanze" unicode="&#58906;" d="M512 895.993668c-282.708088 0-511.993668-229.28558-511.993668-511.993668 0-282.708088 229.158941-511.993668 511.993668-511.993668s511.993668 229.158941 511.993668 511.993668S794.708088 895.993668 512 895.993668z m0-959.559931c-247.217611 0-447.566263 200.348652-447.566263 447.566263S264.782389 831.566263 512 831.566263 959.566263 631.217611 959.566263 384 759.217611-63.566263 512-63.566263z"  horiz-adv-x="1024" />

    
    <glyph glyph-name="xuanze1" unicode="&#58926;" d="M512-128C229.23-128 0 101.23000000000002 0 384S229.23 896 512 896s512-229.23 512-512-229.23-512-512-512z m281.405 696.637c-14.141 14.165-37.083 14.165-51.249 0l-315.88-315.88-145.09 145.116c-14.166 14.14-37.108 14.14-51.25 0-14.14-14.141-14.14-37.084 0-51.249l169.912-169.886c0.268-0.317 0.365-0.708 0.658-1 10.654-10.655 26.258-13.263 39.375-7.875a35.755 35.755 0 0 1 12.093 7.972c0.098 0.098 0.146 0.244 0.244 0.366l341.187 341.187c14.165 14.166 14.165 37.108 0 51.249z"  horiz-adv-x="1024" />

    
    <glyph glyph-name="liaotian" unicode="&#58948;" d="M1058.268-23.138c57.59 46.753 93.63 113.548 93.63 187.71 0 141.385-130.988 256-292.571 256-161.583 0-292.571-114.615-292.571-256 0-141.385 130.988-256 292.571-256 48.348 0 93.956 10.261 134.137 28.431l85.292-28.431-20.487 68.29zM1078.404 428.146c-10.048 239.678-235.277 431.282-511.649 431.282-282.77 0-512-200.577-512-448 0-127.642 61.006-242.814 158.896-324.414v0l-30.896-123.585 137.776 55.111c73.058-35.129 156.974-55.111 246.224-55.111 1.022 0 2.043 0.003 3.062 0.007-47.777 55.622-76.206 125.391-76.206 201.135 0 181.78 163.735 329.143 365.714 329.143 82.173 0 158.017-24.391 219.079-65.568v0z"  horiz-adv-x="1171" />

    
    <glyph glyph-name="lianxiwomen" unicode="&#58904;" d="M914.802 559.588c-0.626 0-1.252-0.114-1.85-0.114C869.235 748.686 702.237 889.828 501.989 889.828c-205.74 0-376.548-148.936-414.408-345.97-36.807-6.628-60.785-38.998-60.785-78.137v-156.615c0-43.89 31.146-79.502 74.61-79.502 24.519 0 46.165 11.576 60.558 29.354a365.568 365.568 0 0 1 195.214-205.312 43.804 43.804 0 0 0 3.954 6.4c1.422 1.82 2.986 3.3 4.352 3.3 1.393 0 2.702-0.512 3.811-1.28-20.736 15.445-95.658 94.805-111.9 205.596-7.111 48.782 29.383 96.598 71.907 104.534 68.267 12.714 136.22 27.22 204.459 39.708 43.406 7.908 73.045 31.716 91.221 71.367 4.21 9.245 10.383 27.99 13.199 55.04a8.42 8.42 0 0 0 8.248 7.083c2.845 0 5.234-1.422 6.799-3.499l1.877 1.166c26.908-39.054 80.27-125.582 87.95-216.803 8.818-104.278 3.897-175.73-75.946-248.775a6.457 6.457 0 0 1-2.105-4.779c0-2.247 1.194-4.153 2.958-5.348l1.934-0.91c0.569-0.114 1.053-0.284 1.621-0.284 0.54 0 0.996 0.17 1.508 0.284 1.11 0.598 2.19 1.309 3.3 1.878a364.942 364.942 0 0 1 171.264 208.07 80.754 80.754 0 0 1 50.801-33.905c-33.792-153.685-170.894-249.885-340.736-264.505A69.518 69.518 0 0 1 493 21.163c-38.428 0-69.603-30.407-69.603-67.954 0-37.49 31.146-67.925 69.603-67.925 30.976 0 56.946 19.91 65.934 47.246 196.608 16.014 354.19 132.864 387.1 314.425a80.213 80.213 0 0 1 49.437 73.955V479.374c0.086 44.288-36.067 80.214-80.668 80.214z m-72.534-45.54c-51.285 138.923-184.177 238.137-340.451 238.137-155.648 0-288.029-98.39-339.797-236.402-2.56 3.157-5.576 5.86-8.562 8.59C182.756 692.537 327.48 820.395 501.988 820.395c173.653 0 317.952-126.607 348.216-293.604a77.084 77.084 0 0 1-7.936-12.743z"  horiz-adv-x="1024" />

    
    <glyph glyph-name="wodebaojiadan" unicode="&#58887;" d="M876-49.8H149.9c-28.6 0-51.9 23.2-51.9 51.9V650.4c0 28.6 23.2 51.9 51.9 51.9h77.8v-32.4c0-53.7 43.5-97.2 97.3-97.2 53.7 0 97.2 43.5 97.2 97.2v32.4h181.5v-32.4c0-53.7 43.5-97.2 97.2-97.2s97.2 43.5 97.2 97.2v32.4H876c28.6 0 51.9-23.2 51.9-51.9v-648.3c0-28.6-23.3-51.9-51.9-51.9zM253.6 92.9h272.3c14.3 0 25.9 11.6 25.9 25.9 0 14.3-11.6 25.9-25.9 25.9H253.6c-14.3 0-25.9-11.6-25.9-25.9 0-14.3 11.6-25.9 25.9-25.9z m0 155.6h389c14.3 0 25.9 11.6 25.9 25.9 0 14.3-11.6 25.9-25.9 25.9h-389c-14.3 0-25.9-11.6-25.9-25.9 0-14.3 11.6-25.9 25.9-25.9z m518.7 207.4H253.6c-14.3 0-25.9-11.6-25.9-25.9 0-14.3 11.6-25.9 25.9-25.9h518.7c14.3 0 25.9 11.6 25.9 25.9 0 14.3-11.6 25.9-25.9 25.9z m-71.4 155.6c-32.2 0-58.3 26.1-58.3 58.4v90.8c0 32.2 26.1 58.3 58.3 58.3 32.2 0 58.4-26.1 58.4-58.3v-90.8c0-32.2-26.1-58.4-58.4-58.4z m-376 0c-32.2 0-58.4 26.1-58.4 58.4v90.8c0 32.2 26.1 58.3 58.4 58.3 32.2 0 58.3-26.1 58.3-58.3v-90.8c0.1-32.2-26.1-58.4-58.3-58.4z"  horiz-adv-x="1024" />

    
    <glyph glyph-name="jianzhucailiao" unicode="&#58998;" d="M1014.715733 45.7728L584.6528 790.698667c-26.350933 45.653333-92.245333 45.653333-118.613333 0l-163.2256-282.709334c-13.175467-22.818133 3.293867-51.3536 29.6448-51.3536h159.232c63.965867 0 120.183467-48.0768 124.330666-111.906133a119.0912 119.0912 0 0 0-20.0704-74.5472 33.723733 33.723733 0 0 1-0.136533-37.7344c12.919467-19.0976 20.462933-42.0864 20.462933-66.833067s-7.560533-47.735467-20.462933-66.833066a33.4848 33.4848 0 0 1 0-37.512534 118.852267 118.852267 0 0 0 19.8144-79.240533c-2.184533-20.667733 13.073067-38.946133 33.860267-38.946133h305.937066c52.701867-0.017067 85.6576 57.053867 59.2896 102.690133zM496.452267 388.164267H51.3536A51.5072 51.5072 0 0 1 0 336.810667a51.5072 51.5072 0 0 1 51.3536-51.3536h445.098667a51.5072 51.5072 0 0 1 51.3536 51.3536 51.5072 51.5072 0 0 1-51.3536 51.3536zM496.452267 216.968533H51.3536A51.5072 51.5072 0 0 1 0 165.614933a51.5072 51.5072 0 0 1 51.3536-51.3536h445.098667a51.5072 51.5072 0 0 1 51.3536 51.3536 51.5072 51.5072 0 0 1-51.3536 51.3536zM496.452267 45.7728H51.3536A51.5072 51.5072 0 0 1 0-5.5808a51.5072 51.5072 0 0 1 51.3536-51.3536h445.098667a51.5072 51.5072 0 0 1 51.3536 51.3536 51.5072 51.5072 0 0 1-51.3536 51.3536z"  horiz-adv-x="1024" />

    
    <glyph glyph-name="weixin1" unicode="&#58914;" d="M575.567 372.753c-10.263 0-20.526-9.53-20.526-21.259 0-9.53 10.258-19.06 20.526-19.06 15.396 0 26.392 9.53 26.392 19.06 0 11.729-10.991 21.259-26.392 21.259z m-67.451 98.983c16.13 0 26.394 10.263 26.394 25.659 0 16.131-10.263 25.661-26.394 25.661-15.396 0-30.061-9.53-30.061-25.661 0-15.401 14.665-25.659 30.061-25.659z m8.066 350.654c-248.533 0-450.003-201.471-450.003-450.003 0-248.526 201.47-449.997 450.003-449.997 248.526 0 449.997 201.471 449.997 449.997 0 248.532-201.465 450.003-449.997 450.003z m-85.05-564.011c-27.13 0-46.925 4.397-72.584 11.734l-74.05-37.398 21.264 63.059c-52.058 36.655-82.852 82.847-82.852 139.301 0 99.71 93.848 175.962 208.222 175.962 101.18 0 191.359-60.123 208.955-145.173-7.328 1.471-13.932 2.198-19.795 2.198-99.714 0-176.694-74.782-176.694-164.961 0-15.396 2.202-29.323 5.866-43.992-5.866-0.73-12.466-0.73-18.332-0.73z m305.737-71.846l14.66-52.795-55.722 31.527c-21.259-4.397-41.79-10.996-63.049-10.996-98.249 0-175.962 67.449-175.962 151.029 0 83.585 77.714 151.034 175.962 151.034 93.11 0 176.69-67.449 176.69-151.034 0-46.92-31.522-88.708-72.579-118.771v0.006zM362.943 523.056c-15.391 0-31.522-9.53-31.522-25.661 0-15.401 16.13-25.664 31.522-25.664 14.67 0 26.399 10.263 26.399 25.664 0 16.131-11.729 25.661-26.399 25.661z m327.736-150.303c-11.001 0-20.531-9.53-20.531-21.259 0-9.53 9.53-19.06 20.531-19.06 14.659 0 25.66 9.53 25.66 19.06-0.001 11.729-11.002 21.259-25.66 21.259z m0 0"  horiz-adv-x="1024" />

    
    <glyph glyph-name="bianji" unicode="&#58978;" d="M936.014625-34.398537H46.800731a46.800731 46.800731 0 0 1 0-93.601463h936.014625a46.800731 46.800731 0 0 1 33.22852 14.040219 46.800731 46.800731 0 0 1 13.572212 32.760512v187.202925a46.800731 46.800731 0 0 1-46.800732 46.800732h-421.206581a46.800731 46.800731 0 0 1 0-93.601463h374.40585zM155.378428 272.61426a75.817185 75.817185 0 0 1-14.976234-56.160878l5.14808-46.800731a46.800731 46.800731 0 0 1 42.120658-41.652651H187.202925l44.460695-4.680073h8.424131A73.009141 73.009141 0 0 1 294.844607 147.1883L784.380256 637.191956a46.800731 46.800731 0 0 1 0 66.457039L718.391225 769.638026a46.800731 46.800731 0 0 1-66.457039 0L167.546618 285.250457a93.601463 93.601463 0 0 1-11.700183-11.700183z m-73.009141 58.968921l6.552102 7.488117L618.705667 868.387569a93.601463 93.601463 0 0 0 132.44607 0l131.978062-131.978063a93.601463 93.601463 0 0 0 0-132.446069L353.813528 74.179159a128.702011 128.702011 0 0 0-12.16819-10.296161 93.601463 93.601463 0 0 0-60.84095-25.272395H150.230347a93.601463 93.601463 0 0 0-93.601462 93.601463v3.276051l3.276051 136.658135a93.601463 93.601463 0 0 0 22.464351 59.436929zM187.109324 367.853748l66.223034 66.176234 200.868739-200.868739-66.176234-66.176234z"  horiz-adv-x="1029" />

    
    <glyph glyph-name="add1" unicode="&#58884;" d="M510.6421879 54.067187529999956c-181.72656272 0-329.04531273 147.3484378-329.04531271 329.09843765S328.91562519 712.2531254 510.6421879 712.2531254c181.72812497 0 329.04687497-147.33750037 329.04687497-329.08750021S692.37031287 54.067187529999956 510.6421879 54.067187529999956zM510.6421879 671.11874982c-159.01249961 0-287.91406247-128.92031241-287.91406248-287.95312463S351.62968747 95.21093746999998 510.6421879 95.21093746999998s287.91406247 128.92187467 287.91406247 287.95468772S669.6546875 671.11874982 510.6421879 671.11874982zM634.03437473 362.59375021999995L531.20937527 362.59375021999995l0-102.84062531c0-11.35312509-9.20781245-20.56406287-20.56562512-20.56406287-11.35781269 0-20.56406287 9.21093777-20.56406288 20.56406287l0 102.84062531-102.82812477 0c-11.35781269 0-20.56562513 9.20937469-20.56562513 20.57187496 0 11.35468735 9.20937469 20.56406287 20.56562513 20.56406286l102.82812477 0 0 102.84531291c0 11.35312509 9.20781245 20.55937527 20.56406288 20.55937527 11.35937495 0 20.56562513-9.2046871 20.56562512-20.55937527l0-102.84531291 102.82500027 0c11.35937495 0 20.56562513-9.20937469 20.56562514-20.56406286C654.59999985 371.80312490999995 645.39374967 362.59375021999995 634.03437473 362.59375021999995z"  horiz-adv-x="1024" />

    
    <glyph glyph-name="shipin" unicode="&#59108;" d="M917.333 533.333c0 8.534-2.133 14.934-6.4 23.467-12.8 19.2-38.4 25.6-59.733 12.8l-125.867-78.933V640c0 23.467-19.2 42.667-42.666 42.667H149.333c-23.466 0-42.666-19.2-42.666-42.667v-512c0-23.467 19.2-42.667 42.666-42.667h533.334c23.466 0 42.666 19.2 42.666 42.667V277.333L851.2 198.4c19.2-12.8 46.933-6.4 59.733 12.8 4.267 6.4 6.4 14.933 6.4 23.467V533.333z m-42.666-273.066v-25.6l-160 100.266c-14.934 8.534-32-2.133-32-17.066V128H149.333V640h533.334v-187.733c0-17.067 19.2-27.734 32-17.067l160 98.133v-273.066zM341.333 256l213.334 128-213.334 128z"  horiz-adv-x="1024" />

    
    <glyph glyph-name="pengyouquan" unicode="&#58894;" d="M521.216 896c-18.944 0-38.4-1.024-56.832-3.072-45.568-5.12-89.088-16.384-130.56-32.768 0 0 339.968-335.872 348.672-348.672v358.4a1037.531 1037.531 0 0 0-30.72 9.728C609.792 890.368 566.272 896 521.216 896zM876.032 749.568c-13.824 13.824-27.648 26.112-42.496 37.888-36.352 28.672-74.752 51.712-115.712 69.12 0 0 2.56-477.696 0-493.056l253.44 253.44c-4.608 9.728-10.24 18.944-15.36 28.16-22.016 37.888-48.128 73.216-79.872 104.448zM987.136 577.536S651.264 237.568 638.464 228.864h358.4a1037.531 1037.531 0 0 0 9.728 30.72c11.264 41.472 17.408 84.992 17.408 130.048 0 18.944-1.024 38.4-3.072 56.832-6.144 46.08-16.896 90.112-33.792 131.072zM488.448 191.488l253.44-253.44c9.728 4.608 18.944 10.24 28.672 15.36 37.376 21.504 72.192 47.616 104.448 79.872 13.824 13.824 26.112 27.648 37.888 42.496 28.672 36.352 51.712 74.752 69.12 115.712 0 0-478.208-2.56-493.568 0zM358.912 270.848v-358.4c10.24-3.072 20.992-6.144 30.72-9.728 41.472-11.264 84.992-17.408 130.048-17.408 18.944 0 38.4 1.024 56.832 3.072 44.544 5.12 88.576 16.384 130.56 32.768 0 1.024-339.456 337.408-348.16 349.696zM323.072 419.84L69.632 166.4c4.608-9.728 10.24-18.944 15.36-28.672 21.504-37.376 47.616-72.192 79.872-104.448 13.824-13.824 27.648-26.112 42.496-37.888 36.352-28.672 74.752-51.712 115.712-69.12 0 1.024-2.56 478.72 0 493.568zM34.304 521.728C23.04 480.256 17.408 436.736 17.408 391.68c0-18.944 1.024-38.4 3.072-56.832 5.12-45.568 16.384-89.088 32.768-130.56 0 0 335.872 339.968 348.16 348.672H44.032c-3.584-10.752-7.168-20.48-9.728-31.232zM267.776 826.88c-37.376-21.504-72.192-47.616-103.936-79.872-13.824-13.824-26.112-28.16-37.888-42.496C97.28 668.16 74.24 629.76 56.832 588.8c0 0 478.208 2.56 493.056 0L295.936 841.728a745.958 745.958 0 0 1-28.16-14.848z"  horiz-adv-x="1024" />

    
    <glyph glyph-name="shipin1" unicode="&#59336;" d="M928.366 662.343L758.953 535.055v-302.111l169.413-127.287c13.325-10.012 31.634 0.22 31.634 17.679V644.664c0 17.458-18.309 27.69-31.634 17.679zM647.037 685.571H124.314C91.141 685.571 64 658.429 64 625.257v-482.513c0-33.173 27.141-60.314 60.314-60.314h522.723c33.173 0 60.314 27.141 60.314 60.314V625.257c0 33.172-27.141 60.314-60.314 60.314z m-62.324-164.189c-27.759 0-50.262 22.503-50.262 50.262 0 27.758 22.502 50.262 50.262 50.262 27.758 0 50.262-22.504 50.262-50.262 0-27.76-22.504-50.262-50.262-50.262z"  horiz-adv-x="1024" />

    
    <glyph glyph-name="bianji1" unicode="&#58979;" d="M575.6 562.2l-54.8-54.4-49.4-49.1c-14.9-14.8-56.5-55-66.4-65.1-9.8-10-16.2-16.4-18.9-19.1-6.4-6.3-11.1-12-14.5-17.2-3.5-5.2-6.5-11-9.2-17.1-2.3-4.1-5.2-11.5-8.8-22.2-3.6-10.7-7.3-22.6-11.1-35.3-3.8-12.8-7.4-25.2-10.8-37-3.4-11.9-5.6-21-6.5-27.3-1.8-11.5-0.6-19.9 3.4-24.8 4.1-4.9 12.2-6.8 24.4-5.4 5.8 0.9 14.8 3 26.7 6 11.9 3.2 24.5 6.8 37.8 11.1 13.3 4.3 26 8.6 38.2 13.1 12.2 4.6 21.4 8.3 27.7 11.5 6.4 2.7 12.4 6.3 18.3 10.7 5.8 4.4 11 8.8 15.6 12.7 1.7 1.4 7.4 6.8 16.8 16.2 9.3 9.5 21.4 21.5 35.8 36 14.4 14.6 59.8 58.4 77.8 75.9l54.2 54.4 141.3 142.5-127.6 123-140-139.1z m323 72.1c3.9 3.8 8.6 8.3 13.9 13.3 5.4 4.9 11.4 10.9 18.1 17.5 6.2 6.7 10.8 13.7 13.6 21 2.9 7.3 4.3 14.6 4.3 21.8 0 1.6-0.1 3.2-0.1 4.7 0.8 12.6-2.7 26.4-10.1 39.6-4.9 8.9-11.8 17.7-20.2 25.4-15.2 13.9-33 22.7-50.1 25.8-4 0.7-8 1.1-12.2 1.2h-2.1c-7.5 0.1-15-1-22.8-3.3-8.4-2.5-16.6-6.8-24.5-13-6.2-5.1-14-11.9-23.2-20.5s-17.2-16-24-22.2l126.8-123c3.9 3.3 8 7.3 12.6 11.7z m39.3-59.4L554.1 198.5c-6.9-6.8-15.5-16.5-24.9-19.6l-192.1-52.2c-31.7-8.5-79.5 31.7-73.1 62.5l38 179.7c0.1 0.4 0.2 0.7 0.3 1 3.4 11.8 13 22.5 21.9 31.3L727.8 811.1c7.9 7.7 2.1 20.7-9.2 20.7h-449c-109.9 0-200-82.9-205.1-186.7h-0.3v-522.5h0.3c5.1-103.8 95.1-186.6 205-186.6h485.1c109.9 0 200 82.9 205.1 186.6h0.1V566.4c0.1 11-13.9 16.4-21.9 8.5z"  horiz-adv-x="1024" />

    
    <glyph glyph-name="lingshou" unicode="&#58966;" d="M512-128C229.888-128 0 101.88800000000003 0 384S229.888 896 512 896s512-229.888 512-512-229.888-512-512-512z m0 960c-246.784 0-448-201.216-448-448s201.216-448 448-448 448 201.216 448 448-201.216 448-448 448zM386.56 207.87199999999996c-17.92 0-37.376 3.072-59.392 9.728-21.504 6.656-42.496 22.528-67.072 41.472-35.328 26.624-74.752 57.344-109.056 49.664-24.576-5.632-48.64-30.72-71.68-75.264-8.192-15.872-27.648-22.016-43.008-13.824-15.872 8.192-22.016 27.648-13.824 43.008 32.768 62.976 70.144 98.304 114.176 108.032 62.976 13.824 117.76-27.648 161.792-61.44 17.92-13.824 36.352-27.648 47.104-31.232 82.432-25.6 111.616 23.04 156.16 110.592 16.384 32.256 33.28 66.048 55.808 91.648 19.968 23.04 41.984 37.888 60.928 51.2 39.424 26.624 65.536 44.544 65.536 123.392 0 96.768-90.624 171.52-91.648 172.032a31.8464 31.8464 0 0 0-4.608 45.056c11.264 13.824 31.232 15.872 45.056 4.608 4.608-3.584 115.2-94.72 115.2-221.696 0-113.152-49.664-146.944-93.696-176.64-17.408-11.776-34.304-23.04-48.64-39.936-17.408-19.968-31.744-48.64-47.104-79.36-32.768-64.512-76.288-151.04-172.032-151.04zM579.072-123.39200000000005c-10.752 0-20.992 5.12-27.136 14.848-25.088 39.936-45.568 134.656 55.808 210.944 86.528 64.512 218.112 57.344 298.496 17.408 15.872-7.68 22.528-27.136 14.848-43.008-7.68-15.872-27.136-22.528-43.008-14.848-64.512 31.744-168.96 35.84-232.448-11.264-77.312-57.856-44.032-118.784-39.936-125.44 9.216-14.848 5.12-34.816-10.24-44.032-4.608-3.072-10.752-4.608-16.384-4.608z"  horiz-adv-x="1024" />

    
    <glyph glyph-name="dizhi" unicode="&#58946;" d="M806.4 742.4C729.6 819.2 620.8 864 512 864s-217.6-44.8-294.4-121.6C140.8 665.6 96 556.8 96 448s44.8-217.6 121.6-294.4l224-224c19.2-19.2 44.8-25.6 70.4-25.6s51.2 6.4 70.4 25.6l224 224c76.8 76.8 121.6 185.6 121.6 294.4s-44.8 217.6-121.6 294.4z m-44.8-544l-224-224c-12.8-12.8-32-12.8-44.8 0l-224 224c-64 64-102.4 153.6-102.4 249.6s38.4 185.6 102.4 249.6S416 800 512 800s179.2-38.4 249.6-102.4 102.4-153.6 102.4-249.6-38.4-179.2-102.4-249.6zM512 608C422.4 608 352 537.6 352 448S422.4 288 512 288 672 358.4 672 448 601.6 608 512 608z m0-256c-51.2 0-96 44.8-96 96S460.8 544 512 544s96-44.8 96-96S563.2 352 512 352z"  horiz-adv-x="1024" />

    
    <glyph glyph-name="xiaoxi" unicode="&#58959;" d="M914.036364 896H110.219636C46.359273 896 0 843.636364 0 771.490909v-625.570909c0-69.771636 44.218182-116.666182 110.219636-116.666182h235.566546l140.962909-145.221818c7.540364-8.029091 17.501091-12.032 27.461818-12.032 10.077091 0 20.014545 4.142545 27.694546 12.148364l138.33309 144.989091h233.797819c65.745455 0 109.963636 46.894545 109.963636 116.642909V771.467636C1024 843.636364 977.757091 896 914.036364 896z m31.860363-750.08c0-24.064-9.192727-33.815273-31.883636-33.815273H663.970909c-10.798545 0-20.596364-4.654545-27.694545-12.171636L513.978182-27.927273l-124.718546 128.139637a37.422545 37.422545 0 0 1-28.578909 11.869091H110.242909c-22.807273 0-32.116364 9.774545-32.116364 33.815272V771.490909c0 12.567273 3.118545 41.704727 32.116364 41.704727h803.793455c28.718545 0 31.883636-29.137455 31.883636-41.704727v-625.570909h-0.023273zM199.796364 466.594909a68.654545 68.654545 0 0 1 68.584727-68.747636 68.654545 68.654545 0 0 1 68.584727 68.747636 68.654545 68.654545 0 0 1-68.584727 68.747636 68.654545 68.654545 0 0 1-68.584727-68.747636z m244.433454 0a68.654545 68.654545 0 0 1 68.584727-68.747636 68.654545 68.654545 0 0 1 68.584728 68.747636 68.654545 68.654545 0 0 1-68.584728 68.747636 68.654545 68.654545 0 0 1-68.584727-68.747636c0-37.981091 0 0 0 0z m242.804364 0.861091a68.654545 68.654545 0 0 1 68.584727-68.747636 68.654545 68.654545 0 0 1 68.584727 68.747636 68.654545 68.654545 0 0 1-68.584727 68.770909 68.654545 68.654545 0 0 1-68.584727-68.770909z"  horiz-adv-x="1024" />

    
    <glyph glyph-name="zixun" unicode="&#58880;" d="M432 288h-128c-17.6 0-32-14.4-32-32s14.4-32 32-32h128c17.6 0 32 14.4 32 32s-14.4 32-32 32zM592 448H304c-17.6 0-32-14.4-32-32s14.4-32 32-32h288c17.6 0 32 14.4 32 32s-14.4 32-32 32zM592 608H304c-17.6 0-32-14.4-32-32s14.4-32 32-32h288c17.6 0 32 14.4 32 32s-14.4 32-32 32zM784 640v32c0 70.4-57.6 128-128 128H240c-70.4 0-128-57.6-128-128v-576c0-70.4 57.6-128 128-128h544c70.4 0 128 57.6 128 128V512c0 70.4-57.6 128-128 128z m64-544c0-35.2-28.8-64-64-64H240c-35.2 0-64 28.8-64 64V672c0 35.2 28.8 64 64 64h416c35.2 0 64-28.8 64-64v-480c0-17.6 14.4-32 32-32s32 14.4 32 32V576c35.2 0 64-28.8 64-64v-416z"  horiz-adv-x="1024" />

    
    <glyph glyph-name="weibiaoti-_huabanfuben" unicode="&#58895;" d="M512 768.9728c-133.4144 0-192.4864-72.1792-192.4864-192.4864V239.616h384.9856V576.4864c-0.0128 120.3072-78.72 192.4864-192.4992 192.4864zM560.128 408.0512h-96.256l-24.0512-96.2432v-312.8064h144.3584V311.808zM223.2576 191.5008c-45.2352-45.2352-48.128-192.4864-48.128-192.4864H512L415.7568 287.744s-169.8944-73.6256-192.4992-96.2432z m577.4848 0C778.112 214.1312 608.256 287.744 608.256 287.744L512-0.9984h336.8576s-2.88 147.264-48.1152 192.4992zM584.1792 311.808L512-0.9984h24.064l72.1792 168.4352 120.3072 24.064-144.3712 120.3072z m-288.7296-120.3072l120.3072-24.064 72.1792-168.4352H512L439.8208 311.808l-144.3712-120.3072zM578.2144 625.024c-18.8288-41.6384-83.7888-72.6016-162.4576-72.6016h-47.7824c1.0496-47.1424 5.44-83.7248 23.7312-120.3072 24.064-48.128 73.1648-96.2432 120.3072-96.2432S608.256 384 632.32 432.1152c21.4272 42.8416 23.7696 85.696 24.0256 145.5232-1.4208 27.0464-52.48 47.3856-78.1312 47.3856zM723.6864 612.1088c-21.0176 75.904-107.8016 132.8-211.6864 132.8s-190.6688-56.896-211.6864-132.8c-16.0512-8.8064-28.928-21.504-28.928-35.6224v-48.128c0-26.5728 45.6064-48.128 72.1792-48.128v96.2432c0 66.4448 75.4048 120.3072 168.4352 120.3072s168.4352-53.8624 168.4352-120.3072v-48.128c0-51.5712-32.448-95.552-78.0288-112.6656-6.4384 9.8816-17.5872 16.4224-30.2464 16.4224h-48.128c-19.9296 0-36.096-16.1664-36.096-36.096 0-19.9296 16.1664-36.096 36.096-36.096H572.16c3.52 0 6.912 0.512 10.1248 1.4464 70.9888 9.3312 128.0512 62.8608 142.6432 132.0576 15.4752 8.768 27.6992 21.1712 27.6992 34.9184v48.128c-0.0128 14.144-12.8896 26.8416-28.9408 35.648z"  horiz-adv-x="1024" />

    
    <glyph glyph-name="yanjing" unicode="&#58925;" d="M512 746.667C121.6 746.667 0 384 0 384s134.4-362.667 512-362.667S1024 384 1024 384 902.4 746.667 512 746.667z m0-533.334c-93.867 0-170.667 76.8-170.667 170.667S418.133 554.667 512 554.667 682.667 477.867 682.667 384 605.867 213.333 512 213.333zM384 384a128 128 0 1 1 256 0 128 128 0 1 1-256 0z"  horiz-adv-x="1024" />

    
    <glyph glyph-name="shanchu" unicode="&#59600;" d="M799.305143 34.377143c0-34.377143-28.013714-62.390857-62.390857-62.390857H287.305143a62.464 62.464 0 0 0-62.464 62.390857V696.832h574.464v-662.454857zM349.696 808.813714c0 7.168 5.558857 12.8 12.8 12.8h299.958857c7.241143 0 12.8-5.632 12.8-12.8v-37.595428H349.696v37.595428z m636.781714-37.595428h-236.836571v37.595428C749.641143 856.795429 710.509714 896 662.454857 896H362.496a87.405714 87.405714 0 0 1-87.186286-87.186286v-37.595428H37.668571a37.522286 37.522286 0 1 1 0-75.190857h111.981715v-661.650286c0-75.995429 61.659429-137.581714 137.654857-137.581714h449.536a137.581714 137.581714 0 0 1 137.654857 137.581714V696.832h111.981714c20.772571 0 37.595429 16.822857 37.595429 37.595429a36.864 36.864 0 0 1-37.595429 36.790857zM512.073143 84.772571c20.772571 0 37.595429 16.822857 37.595428 37.595429v400.091429a37.522286 37.522286 0 1 1-75.190857 0v-400.091429c0-20.772571 16.822857-37.595429 37.595429-37.595429z m-175.177143 0c20.772571 0 37.595429 16.822857 37.595429 37.595429v400.091429a37.522286 37.522286 0 1 1-75.190858 0v-400.091429c0.731429-20.772571 17.554286-37.595429 37.595429-37.595429z m350.354286 0c20.845714 0 37.668571 16.822857 37.668571 37.595429v400.091429a37.595429 37.595429 0 1 1-75.264 0v-400.091429c0-20.772571 16.822857-37.595429 37.595429-37.595429z"  horiz-adv-x="1024" />

    
    <glyph glyph-name="fabu" unicode="&#58888;" d="M434.631111-7.395556000000056c-18.887111 0-34.133333 15.246222-34.133333 34.133334V223.23199999999997c0 7.850667 2.730667 15.587556 7.736889 21.617778l410.510222 500.280889c9.671111 11.832889 26.055111 15.701333 40.049778 9.557333s22.186667-20.821333 20.138666-35.953778l-93.411555-664.917333c-1.479111-10.922667-8.305778-20.48-17.976889-25.486222-9.784889-5.12-21.390222-5.12-31.288889-0.113778l-213.105778 108.430222c-16.839111 8.533333-23.438222 29.127111-14.904889 45.852445 8.533333 16.839111 29.127111 23.438222 45.852445 14.904888l170.552889-86.812444 69.859555 497.208889L468.764444 210.94399999999996V26.73777800000005c0-18.887111-15.36-34.133333-34.133333-34.133334zM331.776 236.088889c-5.233778 0-10.581333 1.251556-15.587556 3.754667l-174.08 89.884444c-11.264 5.802667-18.432 17.408-18.432 30.151111-0.113778 12.743111 6.940444 24.348444 18.204445 30.378667l687.331555 363.406222c16.611556 8.760889 37.319111 2.389333 46.08-14.222222 8.760889-16.611556 2.389333-37.319111-14.222222-46.08L231.424 360.448l116.053333-59.960889c16.725333-8.647111 23.324444-29.240889 14.677334-45.966222-6.030222-11.719111-17.976889-18.432-30.378667-18.432z"  horiz-adv-x="1024" />

    
    <glyph glyph-name="fenxiang" unicode="&#58902;" d="M955.913 589.68a56.4 56.4 0 0 0-21.3-4.2c-114.12 0-224.4-25.8-318.72-74.64a566.4 566.4 0 0 1-130.2-92.22 515.7 515.7 0 0 1-98.22-127.98 30 30 0 0 0-52.74 28.62A575.7 575.7 0 0 0 444.293 462a626.4 626.4 0 0 0 144 102c100.44 52.02 216.72 80.04 337.02 81.42L765.533 805.08a30 30 0 0 0 42.42 42.48l166.26-166.2 4.08-5.04-2.7 3.6a57.36 57.36 0 0 0 15.12-38.34 56.28 56.28 0 0 0-15.6-38.64l-0.18-0.12-0.72-0.9-1.2-1.08a56.64 56.64 0 0 0-17.16-11.16z m12.18 95.94c0.36 0.48 3.72-1.8 6.6-4.68a56.4 56.4 0 0 0 0.96-1.02 15.9 15.9 0 0 1-7.56 5.7z m0 0c-3.06 1.2-7.56 2.4-14.88 4.32a30 30 0 0 0 11.52-2.28l3.36-2.04zM456.953 834a30 30 0 0 0 0-60h-233.58a102.6 102.6 0 0 1-102.66-102.6v-574.8c0-56.64 45.96-102.6 102.66-102.6h574.74a102.6 102.6 0 0 1 102.6 102.6V339.84a30 30 0 1 0 60 0v-243.12a162.6 162.6 0 0 0-162.6-162.66h-574.74a162.66 162.66 0 0 0-162.66 162.6V671.4A162.6 162.6 0 0 0 223.373 834h233.58z"  horiz-adv-x="1024" />

    
    <glyph glyph-name="zhifubao" unicode="&#59018;" d="M902.095 243.129l-250.96 84.392s19.287 28.87 39.874 85.472c20.59 56.606 23.539 87.689 23.539 87.689l-162.454 1.339v55.487l196.739 1.387v39.227H552.055v89.29h-96.358v-89.294H272.133v-39.227l183.564 1.304v-59.513h-147.24v-31.079h303.064s-3.337-25.223-14.955-56.606c-11.615-31.38-23.58-58.862-23.58-58.862s-142.3 49.804-217.285 49.804c-74.985 0-166.182-30.123-175.024-117.55-8.8-87.383 42.481-134.716 114.728-152.139 72.256-17.513 138.962 0.173 197.04 28.607 58.087 28.391 115.081 92.933 115.081 92.933l292.486-142.041c-11.932-69.3-72.067-119.914-142.387-119.844H266.37c-79.714-0.078-144.392 64.483-144.466 144.194V629.626c-0.074 79.72 64.493 144.399 144.205 144.47h491.519c79.714 0.073 144.396-64.49 144.466-144.203v-386.764z m-365.76 48.895s-91.302-115.262-198.879-115.262c-107.623 0-130.218 54.767-130.218 94.155 0 39.34 22.373 82.144 113.943 88.333 91.519 6.18 215.2-67.226 215.2-67.226h-0.047z"  horiz-adv-x="1024" />

    
    <glyph glyph-name="qita" unicode="&#58927;" d="M551.384615 351.179487m52.512821 0l315.076923 0q52.512821 0 52.51282-52.51282l0-315.076923q0-52.512821-52.51282-52.512821l-315.076923 0q-52.512821 0-52.512821 52.512821l0 315.076923q0 52.512821 52.512821 52.51282ZM551.384615 836.923077m52.512821 0l315.076923 0q52.512821 0 52.51282-52.512821l0-315.076923q0-52.512821-52.51282-52.51282l-315.076923 0q-52.512821 0-52.512821 52.51282l0 315.076923q0 52.512821 52.512821 52.512821ZM52.512821 351.179487m52.51282 0l315.076923 0q52.512821 0 52.512821-52.51282l0-315.076923q0-52.512821-52.512821-52.512821l-315.076923 0q-52.512821 0-52.51282 52.512821l0 315.076923q0 52.512821 52.51282 52.51282ZM262.564103 758.153846a131.282051 131.282051 0 1 0-131.282052-131.282051 131.282051 131.282051 0 0 0 131.282052 131.282051m0 78.769231a210.051282 210.051282 0 1 1 210.051282-210.051282 210.051282 210.051282 0 0 1-210.051282 210.051282z"  horiz-adv-x="1024" />

    
    <glyph glyph-name="wuliaobaojiadan" unicode="&#59028;" d="M740.8 355.2c-128 1.6-232.8-101.6-234.4-230.4-1.6-128 101.6-232.8 230.4-234.4 128-1.6 232.8 101.6 234.4 230.4v0.8c0 128-103.2 232.8-230.4 233.6m0-54.4c97.6 0 177.6-79.2 177.6-177.6s-79.2-177.6-177.6-177.6-177.6 79.2-177.6 177.6c0 47.2 19.2 92 51.2 125.6 33.6 33.6 78.4 52 126.4 52M787.2 245.6L768 201.6c-13.6-28-21.6-44-23.2-49.6l-3.2-9.6c-6.4 16-22.4 50.4-47.2 101.6h-56l62.4-109.6h-47.2v-33.6h59.2v-24.8h-58.4v-35.2h58.4v-46.4h51.2v46.4h56v33.6h-56v24.8h56v33.6h-45.6l64.8 110.4-52 2.4zM460.8-65.6h-264c-84 0-152 68-152 152v624c0 84 68 152 152 152H728c84 0 152-68 152-152v-265.6c0-17.6-14.4-32-32-32s-32 14.4-32 32V710.4c0 48.8-39.2 88-88 88H197.6c-48.8 0-88-39.2-88-88v-623.2c0-48.8 39.2-88 88-88h264c17.6 0 32-14.4 32-32s-14.4-32.8-32.8-32.8c0.8 0 0.8 0 0 0M664 591.2H261.6c-16.8 0-31.2 13.6-31.2 31.2V624c0 16.8 13.6 31.2 31.2 31.2H664c16.8 0 31.2-13.6 31.2-31.2v-2.4c-0.8-16.8-14.4-30.4-31.2-30.4zM664 391.2H261.6c-16.8 0-31.2 13.6-31.2 31.2V424c0 16.8 13.6 31.2 31.2 31.2H664c16.8 0 31.2-13.6 31.2-31.2v-2.4c-0.8-16.8-14.4-30.4-31.2-30.4zM454.4 191.2h-192c-17.6 0-32 14.4-32 32s14.4 32 32 32h191.2c17.6 0 32-14.4 32-32 0.8-17.6-13.6-32-31.2-32z"  horiz-adv-x="1024" />

    
    <glyph glyph-name="baocunbendi-" unicode="&#59059;" d="M66.5 384.3a443.3 443 90 1 1 886 0 443.3 443 90 1 1-886 0ZM509.5-59c-245.1 0-443 197.9-443 443s197.9 443 443 443 443-197.9 443-443-197.9-443-443-443zM262.9 190.8v-53.4h493.3v53.4H262.9z m257.6 53.5l148 200.1h-93.2V630.7h-111v-186.4h-93.2l149.4-200z"  horiz-adv-x="1024" />

    
    <glyph glyph-name="gongchangguankong" unicode="&#59391;" d="M910.941556 739.514182h-293.422545v42.682182A113.570909 113.570909 0 0 1 504.367011 896H113.152465A113.570909 113.570909 0 0 1 0.000465 782.196364V-128h1024V625.710545a113.384727 113.384727 0 0 1-113.058909 113.803637z m-368.826181-791.691637H75.404102V782.196364c0 20.898909 16.849455 37.981091 37.748363 37.981091h391.214546c20.759273 0 37.748364-16.989091 37.748364-37.981091v-834.373819z m406.62109 0h-331.217454V663.738182h293.422545c20.805818 0 37.794909-16.989091 37.794909-37.981091v-677.888zM411.183011-59.019636H340.713193v233.192727a17.687273 17.687273 0 0 1-17.594182 17.594182H252.788829a17.687273 17.687273 0 0 1-17.594182-17.594182v-233.192727H164.771375V191.767273c0 38.865455 31.557818 70.423273 70.423272 70.423272H340.713193c38.865455 0 70.423273-31.557818 70.423272-70.423272v-250.786909zM362.775738 599.877818H213.178647a35.281455 35.281455 0 0 0-35.188363 35.188364c0 19.362909 15.825455 35.234909 35.188363 35.234909h149.597091c19.362909 0 35.188364-15.825455 35.188364-35.234909 0-19.362909-15.825455-35.188364-35.188364-35.188364z m0-166.306909H213.178647a35.281455 35.281455 0 0 0-35.188363 35.188364c0 19.362909 15.825455 35.188364 35.188363 35.188363h149.597091c19.362909 0 35.188364-15.825455 35.188364-35.188363s-15.825455-35.188364-35.188364-35.188364z m441.250909 8.238546h-105.658182a35.281455 35.281455 0 0 0-35.188363 35.188363c0 19.362909 15.825455 35.234909 35.188363 35.234909h105.658182c19.316364 0 35.141818-15.825455 35.141818-35.234909 0-19.362909-15.825455-35.188364-35.188363-35.188363z m3.816728-139.357091h-105.611637a35.281455 35.281455 0 0 0-35.188363 35.188363c0 19.362909 15.825455 35.188364 35.188363 35.188364h105.611637c19.362909 0 35.188364-15.825455 35.188363-35.188364s-15.825455-35.188364-35.188363-35.188363z m0-133.678546h-105.611637a35.281455 35.281455 0 0 0-35.188363 35.234909c0 19.362909 15.825455 35.188364 35.188363 35.188364h105.611637c19.362909 0 35.188364-15.825455 35.188363-35.188364s-15.825455-35.234909-35.188363-35.234909z"  horiz-adv-x="1024" />

    
    <glyph glyph-name="geren" unicode="&#58901;" d="M520.12364548 339.27612238999995h-2.89879724c-5.02614037 0-9.09965181 4.07351144-9.0996518 9.09965181v5.17809344c0 5.43524481 4.40663933 9.84188415 9.84188416 9.84188415h1.23315768c5.48199962 0 9.92370504-4.44170543 9.92370506-9.92370504v-5.1956265c0-4.97354122-4.02675664-9.00029787-9.00029786-9.00029786zM512 746.7c36.6 0 71-14.2 96.9-40.1 25.9-25.9 40.1-60.3 40.1-96.9v-88.5c0-36.6-14.2-71-40.1-96.9-25.9-25.9-60.3-40.1-96.9-40.1-36.6 0-71 14.2-96.9 40.1-25.9 25.9-40.1 60.3-40.1 96.9v88.5c0 36.6 14.2 71 40.1 96.9 25.9 25.8 60.3 40.1 96.9 40.1m0 67.9c-113.2 0-204.9-91.7-204.9-204.9v-88.5c0-113.2 91.7-204.9 204.9-204.9S716.9 408 716.9 521.2v88.5c0 113.2-91.7 204.9-204.9 204.9zM730.4 197.60000000000002c23.6 0 46-9.3 62.9-26.2s26.2-39.3 26.2-62.9v-74c0-7.1-6-13.1-13.1-13.1H217.6c-7.1 0-13.1 6-13.1 13.1v74c0 23.6 9.3 46 26.2 62.9s39.3 26.2 62.9 26.2h436.8m0 67.9H293.6c-86.4 0-157.1-70.7-157.1-157.1v-74c0-44.6 36.5-81.1 81.1-81.1h588.8c44.6 0 81.1 36.5 81.1 81.1v74c0 86.5-70.7 157.1-157.1 157.1z"  horiz-adv-x="1024" />

    
    <glyph glyph-name="dianhua" unicode="&#58910;" d="M731.395824 444.236542c0-21.914982 14.609988-36.525971 36.525971-36.525971s36.525971 14.609988 36.525971 36.525971c0 119.317904-97.401922 216.719826-216.719827 216.719826-21.914982 0-36.525971-14.609988-36.52597-36.525971s14.609988-36.525971 36.52597-36.52597c80.356936 0 143.667885-65.745947 143.667885-143.667885z m146.102883 0c0-21.914982 14.609988-36.525971 36.525971-36.525971s36.525971 14.609988 36.525971 36.525971c0 197.239842-160.713871 360.387711-360.387712 360.387711-21.914982 0-36.525971-14.609988-36.52597-36.525971s14.609988-36.525971 36.52597-36.52597c155.843875 0 287.33577-129.056897 287.33577-287.33577zM390.490097 570.85944c38.959969 38.959969 43.829965 99.83692 7.304994 143.667885L285.782181 855.760212C249.25621 902.026175 181.074265 909.331169 134.809302 872.805199c-2.435998-4.869996-7.305994-4.869996-7.305994-7.304995L30.101386 768.099282c-92.531926-92.531926 38.960969-345.776723 280.030776-586.84653S799.57777-188.875951 892.109696-98.780023l97.401922 97.401922c43.829965 43.829965 43.829965 112.01191 0 150.972879l-7.304995 7.304994-141.232886 112.01191c-43.830965 36.525971-104.707916 31.655975-143.667885-7.304994l-60.876952-60.875951c-65.745947 38.959969-121.751903 82.791934-172.887861 133.927893-48.701961 48.699961-90.096928 104.706916-131.492895 170.453863l58.440953 65.745947z m-51.135959 94.966924c9.739992-14.609988 9.739992-36.525971-2.434998-46.265963l-80.356935-82.791933c-12.17499-12.17499-14.609988-29.219977-7.304995-43.829965 41.395967-77.921938 94.966924-148.538881 158.277874-211.849831 63.311949-63.311949 133.927893-116.882906 211.84983-158.278873 14.609988-7.304994 31.655975-4.869996 43.829965 7.305994l82.792934 82.790934c14.609988 14.609988 31.654975 14.609988 46.265963 2.434998l141.232886-114.446908s2.434998 0 2.434999-2.434998c14.609988-12.17499 14.609988-34.089973 2.434998-48.700961l-2.434998-2.434998-97.401922-97.401922c-46.265963-46.265963-270.290784 73.050942-482.139614 280.029775C146.983292 439.367546 30.100386 665.827364 78.801347 714.528325l99.83692 99.83692c14.609988 9.739992 38.960969 9.739992 51.136959-7.304994l109.576912-141.232887z"  horiz-adv-x="1024" />

    
    <glyph glyph-name="xiangji" unicode="&#59099;" d="M348.16 343.552a160 160 0 1 1 327.68 0 160 160 0 1 1-327.68 0zM358.4 828.62l-92.16-107.826H102.4C46.08 720.794 0 680.14 0 623.82v-582.042c0-56.32 46.08-102.4 102.4-102.4h819.2c56.32 0 102.4 46.08 102.4 102.4V623.821c0 56.32-46.08 96.973-102.4 96.973H757.76L665.6 828.62H358.4zM512 87.553c-143.36 0-256 112.64-256 256s112.64 256 256 256 256-112.64 256-256-112.64-256-256-256z"  horiz-adv-x="1024" />

    
    <glyph glyph-name="tupian" unicode="&#58915;" d="M155.648 740.352h712.704c20.48 0 36.864-16.384 36.864-36.864v-290.816C868.352 441.344 798.72 486.4 745.472 486.4 667.648 486.4 598.016 306.176 512 306.176c-65.536 4.096-155.648 77.824-258.048 65.536-40.96-8.192-98.304-73.728-135.168-122.88V703.488c0 20.48 16.384 36.864 36.864 36.864zM327.68 445.44c-32.768 0-61.44 12.288-81.92 32.768s-32.768 53.248-32.768 81.92 12.288 61.44 32.768 81.92 49.152 32.768 81.92 32.768c28.672 0 57.344-12.288 81.92-32.768 20.48-20.48 32.768-53.248 32.768-81.92s-12.288-61.44-32.768-81.92c-24.576-20.48-53.248-32.768-81.92-32.768z m561.152 348.16H135.168c-40.96 0-73.728-32.768-73.728-73.728v-671.744c0-40.96 32.768-73.728 73.728-73.728h753.664c40.96 0 73.728 32.768 73.728 73.728V719.872c0 40.96-32.768 73.728-73.728 73.728z"  horiz-adv-x="1024" />

    
    <glyph glyph-name="mutou" unicode="&#58922;" d="M118.820043 265.01655c-37.58355-15.82711-47.48133-70.031459-28.993024-113.637714S153.742397 84.802261 191.419322 100.629371s53.083846 64.195504 34.642229 108.035198-69.657958 72.179091-107.241508 56.351981z m66.950075-137.728537c-27.68577-11.251721-61.160808 4.902202-74.700223 36.136234s-6.349519 69.611271 21.336251 80.909679 54.064287-8.917339 67.65039-40.104682 13.399353-65.689509-14.286418-76.941231zM357.440569 157.494916c-41.085123-28.526148-36.836548-41.178498-33.708476-78.621985 15.500296-46.454201 49.25546-72.645967 86.83901-56.818857s52.710345 63.68194 34.642229 107.98851c-19.935622 29.926777-50.142525 43.32613-87.679388 27.545708z m47.621392-108.922263c-27.68577-11.251721-46.68764-3.174759-53.177221 30.206903-5.042265 25.024575-4.248575 39.030867 16.80755 56.025167 21.803128 4.668764 31.140656 9.337528 50.422651-16.80755s13.586103-58.172799-14.05298-69.42452zM959.104181 556.720923c-0.606939 1.307254-33.334975 67.83714-150.52095 34.081977a0.326813 0.326813 0 0 0-0.326814 0.560251c9.337528 9.337528 81.516619 86.605572 4.668764 167.74869-0.560252 0.933753-57.379109 96.690102-179.887475 28.012583l-151.734829-118.026353c-1.027128-0.466876-81.329868-36.042858-123.582182 0-2.054256 0-40.244745 0-33.661788-33.6151 1.400629-1.540692 36.089545-39.264305 66.109697-33.941914a0.326813 0.326813 0 0 0 0.280126-0.560252L239.414216 483.608079c-0.420189-0.233438-72.179091-44.680071-56.305293-100.985364a0.280126 0.280126 0 0 0 0-0.326814c-4.668764-3.735011-118.166416-92.815028-129.184699-106.727944 0 0-54.251037-58.126111 0-163.033238 0 0 38.37724-78.481922 118.07304-73.112843 0 0 63.635253 2.054256 100.705239 44.399945a0.326813 0.326813 0 0 0 0.560252 0c0.98044-9.711029 14.006292-112.657274 129.184699-122.975243 1.120503-0.560252 43.372817-20.542561 140.529795 73.112844l427.285278 359.821639c0.700315 0.933753 66.763325 86.185383-11.205034 162.986549z m-439.143938-31.934346l100.518488 81.329869a11.298409 11.298409 0 0 0 18.068116-5.649205 11.111658 11.111658 0 0 0-3.921762-11.811973l-100.565175-81.329868a11.251721 11.251721 0 0 0-14.006292 17.507865zM373.501117 518.623809L488.399398 615.874162a12.4656 12.4656 0 0 0 17.60124-1.400629l0.466877-0.606939a14.006292 14.006292 0 0 0-1.914194-18.675056L389.608353 497.754434a12.4656 12.4656 0 0 0-17.60124 1.400629l-0.466877 0.606939a14.006292 14.006292 0 0 0 1.960881 18.861807z m-185.583367-456.32499c-69.704646-5.415766-134.040213 54.017599-134.040214 120.734236s15.220171 115.038344 71.105275 115.038344 131.285643-48.321707 131.285643-115.038344-12.65235-116.438973-68.350704-120.734236z m17.78799 297.633703c0 65.362695 24.977887 107.80176 82.450372 107.80176s125.589751-42.579127 125.58975-107.80176-12.979164-113.871153-70.264897-118.073041c-71.665527-5.275703-137.821912 52.850408-137.821912 118.073041z m210.981444-370.793234c-59.993617-4.668764-115.411845 46.360826-115.411845 103.506497S314.347878 191.016642 362.482834 191.016642s113.077463-41.411936 113.077463-98.604295-10.87822-99.584735-58.873113-103.273059z m211.588382 318.876579l-114.944968-97.016916a12.4656 12.4656 0 0 0-17.60124 1.40063l-0.466877 0.606939a14.006292 14.006292 0 0 0 1.914193 18.675056l114.944969 97.016915a12.4656 12.4656 0 0 0 17.60124-1.400629l0.466877-0.60694a14.006292 14.006292 0 0 0-1.960881-18.675055z m89.967082 151.781516l-92.441526-74.700223a12.4656 12.4656 0 0 0-17.601241 1.400629l-0.466876 0.606939a14.006292 14.006292 0 0 0 1.914193 18.675056l92.441527 74.700223a12.4656 12.4656 0 0 0 17.60124-1.400629l0.466876-0.606939a14.006292 14.006292 0 0 0-1.960881-18.628368z m202.390918-44.960197l-92.441527-74.700223a12.4656 12.4656 0 0 0-17.60124 1.400629l-0.466876 0.606939a14.006292 14.006292 0 0 0 1.914193 18.675056l92.441527 74.700223a12.4656 12.4656 0 0 0 17.60124-1.400629l0.466876-0.606939a14.006292 14.006292 0 0 0-1.914193-18.675056zM372.147175 382.949528c-18.675056 43.839694-69.517895 72.132403-107.101445 56.351981s-47.48133-70.031459-28.993024-113.684402S299.921397 259.133908 337.504947 275.054393s53.083846 64.102129 34.642228 107.895135z m-114.944968-45.240323c-13.632791 31.187343-6.302831 69.657958 21.382939 80.90968 27.68577 11.251721 54.064287-8.917339 67.650389-40.104683S359.494825 312.871381 331.949118 301.572972s-61.160808 4.94889-74.793599 36.136233z"  horiz-adv-x="1024" />

    
    <glyph glyph-name="dianlan" unicode="&#59026;" d="M798.1056 489.3696l-208.6912 2.3552a20.48 20.48 0 0 0-19.5584 25.856L665.7024 870.144c6.8608 24.3712-24.8832 34.9696-38.144 16.4352L208.0256 310.9376c-9.5232-13.2608 3.6864-31.7952 18.5344-31.7952l207.872-3.2768a20.48 20.48 0 0 0 19.456-25.8048 39813.5296 39813.5296 0 0 0-95.4368-352.256c-6.8608-24.32 24.8832-34.9184 38.144-16.384L815.616 457.0624c10.0352 13.824 3.584 32.3072-17.5104 32.3072zM0 742.4m25.6 0l358.4 0q25.6 0 25.6-25.6l0 0q0-25.6-25.6-25.6l-358.4 0q-25.6 0-25.6 25.6l0 0q0 25.6 25.6 25.6ZM716.8 742.4m25.6 0l256 0q25.6 0 25.6-25.6l0 0q0-25.6-25.6-25.6l-256 0q-25.6 0-25.6 25.6l0 0q0 25.6 25.6 25.6ZM0 435.2m25.6 0l102.4 0q25.6 0 25.6-25.6l0 0q0-25.6-25.6-25.6l-102.4 0q-25.6 0-25.6 25.6l0 0q0 25.6 25.6 25.6ZM0 128m25.6 0l256 0q25.6 0 25.6-25.6l0 0q0-25.6-25.6-25.6l-256 0q-25.6 0-25.6 25.6l0 0q0 25.6 25.6 25.6ZM870.4 435.2m25.6 0l102.4 0q25.6 0 25.6-25.6l0 0q0-25.6-25.6-25.6l-102.4 0q-25.6 0-25.6 25.6l0 0q0 25.6 25.6 25.6ZM665.6 128m25.6 0l307.2 0q25.6 0 25.6-25.6l0 0q0-25.6-25.6-25.6l-307.2 0q-25.6 0-25.6 25.6l0 0q0 25.6 25.6 25.6Z"  horiz-adv-x="1024" />

    
    <glyph glyph-name="hao" unicode="&#58885;" d="M927.878 428.382h-377.118v365.861c0 16.8859-16.8859 39.4004-39.4004 39.4004-22.5145 0-39.4004-22.5145-39.4004-45.029v-365.861H106.097c-22.5145 5.62863-45.029-16.8859-45.029-39.4004s22.5145-39.4004 39.4004-39.4004h365.861v-365.861c5.62863-22.5145 22.5145-45.029 45.029-45.029s39.4004 22.5145 39.4004 39.4004v371.49h371.49c22.5145 0 39.4004 22.5145 39.4004 39.4004s-11.2573 45.029-33.7718 45.029Z"  horiz-adv-x="1027" />

    


  </font>
</defs>
</svg>
